<svg width="23" height="23" viewBox="0 0 23 23" fill="none" xmlns="http://www.w3.org/2000/svg">
<path d="M6.78898 22.5046C6.18119 22.5046 5.66108 22.2894 5.22863 21.8589C4.79544 21.4277 4.57885 20.9096 4.57885 20.3046C4.57885 19.6996 4.79544 19.1815 5.22863 18.7503C5.66108 18.3199 6.18119 18.1046 6.78898 18.1046C7.39676 18.1046 7.91688 18.3199 8.34933 18.7503C8.78252 19.1815 8.99911 19.6996 8.99911 20.3046C8.99911 20.9096 8.78252 21.4277 8.34933 21.8589C7.91688 22.2894 7.39676 22.5046 6.78898 22.5046ZM17.8396 22.5046C17.2318 22.5046 16.7117 22.2894 16.2793 21.8589C15.8461 21.4277 15.6295 20.9096 15.6295 20.3046C15.6295 19.6996 15.8461 19.1815 16.2793 18.7503C16.7117 18.3199 17.2318 18.1046 17.8396 18.1046C18.4474 18.1046 18.9679 18.3199 19.4011 18.7503C19.8335 19.1815 20.0498 19.6996 20.0498 20.3046C20.0498 20.9096 19.8335 21.4277 19.4011 21.8589C18.9679 22.2894 18.4474 22.5046 17.8396 22.5046ZM5.84967 4.90464L8.50183 10.4046H16.2373L19.2762 4.90464H5.84967ZM4.79986 2.70464H21.0996C21.5232 2.70464 21.8455 2.89237 22.0665 3.26784C22.2875 3.64404 22.2967 4.02464 22.0941 4.40964L18.1711 11.4496C17.9686 11.8163 17.6967 12.1005 17.3556 12.3021C17.0153 12.5038 16.6425 12.6046 16.2373 12.6046H8.00455L6.78898 14.8046H20.0498V17.0046H6.78898C5.96018 17.0046 5.33398 16.6424 4.91037 15.9178C4.48676 15.194 4.46834 14.4746 4.85511 13.7596L6.34695 11.0646L2.36872 2.70464H0.158588V0.504639H3.75005L4.79986 2.70464Z" fill="#048387"/>
</svg>
