<svg width="22" height="22" viewBox="0 0 22 22" fill="none" xmlns="http://www.w3.org/2000/svg">
<path d="M2.75 19.4857H6.875V11.9429H15.125V19.4857H19.25V8.17143L11 2.51429L2.75 8.17143V19.4857ZM2.75 22C1.99375 22 1.34658 21.754 0.8085 21.2621C0.2695 20.7693 0 20.1771 0 19.4857V8.17143C0 7.77333 0.0976248 7.39619 0.292875 7.04C0.487208 6.68381 0.75625 6.39048 1.1 6.16L9.35 0.502857C9.60208 0.335238 9.86563 0.209524 10.1406 0.125714C10.4156 0.0419046 10.7021 0 11 0C11.2979 0 11.5844 0.0419046 11.8594 0.125714C12.1344 0.209524 12.3979 0.335238 12.65 0.502857L20.9 6.16C21.2438 6.39048 21.5133 6.68381 21.7085 7.04C21.9028 7.39619 22 7.77333 22 8.17143V19.4857C22 20.1771 21.731 20.7693 21.1929 21.2621C20.6539 21.754 20.0063 22 19.25 22H12.375V14.4571H9.625V22H2.75Z" fill="#048387"/>
</svg>
