<svg width="23" height="23" viewBox="0 0 23 23" fill="none" xmlns="http://www.w3.org/2000/svg">
<g clip-path="url(#clip0_11796_222)">
<path d="M11.0115 11.5046C9.49904 11.5046 8.20424 10.966 7.12716 9.88895C6.05008 8.81187 5.51154 7.51708 5.51154 6.00458C5.51154 4.49208 6.05008 3.19729 7.12716 2.1202C8.20424 1.04312 9.49904 0.504578 11.0115 0.504578C12.524 0.504578 13.8188 1.04312 14.8959 2.1202C15.973 3.19729 16.5115 4.49208 16.5115 6.00458C16.5115 7.51708 15.973 8.81187 14.8959 9.88895C13.8188 10.966 12.524 11.5046 11.0115 11.5046ZM19.2615 22.5046H2.76154C2.00529 22.5046 1.35812 22.2355 0.820035 21.6975C0.281035 21.1585 0.0115356 20.5108 0.0115356 19.7546V18.6546C0.0115356 17.8754 0.212286 17.159 0.613786 16.5055C1.01437 15.8528 1.54695 15.3546 2.21154 15.0108C3.63237 14.3004 5.07612 13.7674 6.54279 13.4117C8.00945 13.057 9.49904 12.8796 11.0115 12.8796C12.524 12.8796 14.0136 13.057 15.4803 13.4117C16.947 13.7674 18.3907 14.3004 19.8115 15.0108C20.4761 15.3546 21.0087 15.8528 21.4093 16.5055C21.8108 17.159 22.0115 17.8754 22.0115 18.6546V19.7546C22.0115 20.5108 21.7425 21.1585 21.2044 21.6975C20.6654 22.2355 20.0178 22.5046 19.2615 22.5046ZM2.76154 19.7546H19.2615V18.6546C19.2615 18.4025 19.1987 18.1733 19.0732 17.9671C18.9467 17.7608 18.7803 17.6004 18.574 17.4858C17.3365 16.8671 16.0876 16.4028 14.8272 16.093C13.5667 15.784 12.2949 15.6296 11.0115 15.6296C9.7282 15.6296 8.45633 15.784 7.19591 16.093C5.93549 16.4028 4.68654 16.8671 3.44904 17.4858C3.24279 17.6004 3.07687 17.7608 2.95129 17.9671C2.82479 18.1733 2.76154 18.4025 2.76154 18.6546V19.7546ZM11.0115 8.75458C11.7678 8.75458 12.4154 8.48508 12.9544 7.94608C13.4925 7.40799 13.7615 6.76083 13.7615 6.00458C13.7615 5.24833 13.4925 4.60116 12.9544 4.06308C12.4154 3.52408 11.7678 3.25458 11.0115 3.25458C10.2553 3.25458 9.60812 3.52408 9.07004 4.06308C8.53104 4.60116 8.26154 5.24833 8.26154 6.00458C8.26154 6.76083 8.53104 7.40799 9.07004 7.94608C9.60812 8.48508 10.2553 8.75458 11.0115 8.75458Z" fill="#048387"/>
</g>
<defs>
<clipPath id="clip0_11796_222">
<rect width="22" height="22" fill="white" transform="translate(0.0115356 0.504578)"/>
</clipPath>
</defs>
</svg>
